<svg preserveAspectRatio="none" width="100%" height="100%" overflow="visible" style="display: block;" viewBox="0 0 60.25 70.8016" fill="none" xmlns="http://www.w3.org/2000/svg">
<g id="Group 18">
<path id="Vector" d="M23.9124 35.868L26.1103 31.764L29.357 43.4226C30.3519 46.9953 35.8467 47.5596 37.747 44.2843L41.309 38.145H43.95C45.6137 38.145 46.9625 36.9563 46.9625 35.4899C46.9625 34.0236 45.6137 32.8349 43.95 32.8349H40.3803C38.6881 32.8349 37.1381 33.6703 36.3677 34.9986L34.2373 38.67L30.9416 26.8349C29.9298 23.2015 24.3 22.7029 22.4885 26.0863L18.8746 32.8349H16.3002C14.6364 32.8349 13.2877 34.0236 13.2877 35.4899C13.2877 36.9563 14.6364 38.145 16.3002 38.145H19.8366C21.5807 38.145 23.1681 37.2582 23.9124 35.868Z" fill="var(--fill-0, #E87E15)"/>
<path id="Vector_2" fill-rule="evenodd" clip-rule="evenodd" d="M19.7903 0C16.3672 0 13.2378 1.7046 11.7069 4.40309L8.15873 10.6575C3.57981 11.0469 0 14.4478 0 18.5856V52.2167C0 56.3544 3.57985 59.7553 8.15881 60.1447L11.7069 66.3987C13.2378 69.097 16.3672 70.8016 19.7902 70.8016H40.4599C43.8829 70.8016 47.0123 69.097 48.543 66.3987L52.0913 60.1447C56.6699 59.7553 60.25 56.3544 60.25 52.2167V18.5856C60.25 14.4478 56.6703 11.0469 52.0913 10.6575L48.543 4.40309C47.0123 1.7046 43.8829 0 40.4595 0H19.7903ZM9.97523 54.8718C10.018 54.871 10.0608 54.871 10.1034 54.8718H50.1469C50.1895 54.871 50.232 54.871 50.2746 54.8718H51.2125C52.8762 54.8718 54.225 53.683 54.225 52.2167V18.5856C54.225 17.1192 52.8762 15.9305 51.2125 15.9305H50.2734C50.2316 15.9313 50.1895 15.9313 50.1477 15.9305H10.1023C10.0604 15.9313 10.0184 15.9313 9.9764 15.9305H9.0375C7.37376 15.9305 6.025 17.1192 6.025 18.5856V52.2167C6.025 53.683 7.37376 54.8718 9.0375 54.8718H9.97523ZM17.0958 64.0236L14.9161 60.1819H45.3337L43.1543 64.0236C42.6437 64.9232 41.6006 65.4914 40.4599 65.4914H19.7902C18.6492 65.4914 17.6061 64.9232 17.0958 64.0236ZM45.3341 10.6203L43.1543 6.77786C42.6437 5.87836 41.6006 5.31017 40.4595 5.31017H19.7903C18.6493 5.31017 17.6061 5.87836 17.0959 6.77786L14.916 10.6203H45.3341Z" fill="var(--fill-0, #E87E15)"/>
</g>
</svg>
