<?xml version="1.0" encoding="UTF-8"?><svg id="Ebene_2" xmlns="http://www.w3.org/2000/svg" viewBox="0 0 783.79 187.5"><defs><style>.cls-1{font-family:AreaNormal-ExtraBold, 'Area Normal';font-size:97.63px;font-weight:700;}.cls-1,.cls-2{fill:#e87e15;}.cls-3{letter-spacing:-.02em;}.cls-4{letter-spacing:0em;}.cls-5{letter-spacing:-.01em;}.cls-6{letter-spacing:-.01em;}.cls-7{letter-spacing:0em;}</style></defs><g id="Ebene_1-2"><text class="cls-1" transform="translate(357.72 132.8)"><tspan class="cls-7" x="0" y="0">H</tspan><tspan class="cls-6" x="78.3" y="0">e</tspan><tspan class="cls-4" x="137.46" y="0">yD</tspan><tspan class="cls-5" x="271.2" y="0">a</tspan><tspan class="cls-3" x="327.24" y="0">y</tspan></text><rect class="cls-2" x="75" width="37.5" height="75"/><rect class="cls-2" x="75" y="112.5" width="37.5" height="75"/><rect class="cls-2" width="37.5" height="187.5"/><path class="cls-2" d="M307.61,56.41c-5.41-11.21-13.1-21.23-22.87-29.79C265.16,9.45,239.28,0,211.88,0h-61.88v187.5h61.88c27.41,0,53.28-9.45,72.86-26.61,9.77-8.56,17.46-18.58,22.87-29.79,5.7-11.81,8.59-24.37,8.59-37.34s-2.89-25.53-8.59-37.34ZM211.88,150h-24.38V37.5h24.38c36.84,0,66.82,25.23,66.82,56.25s-29.97,56.25-66.82,56.25Z"/></g></svg>